<svg id="visual" viewBox="0 0 900 600" width="900" height="600" xmlns="http://www.w3.org/2000/svg" xmlns:xlink="http://www.w3.org/1999/xlink" version="1.1"><path d="M0 157L13.7 165C27.3 173 54.7 189 82 195C109.3 201 136.7 197 163.8 186C191 175 218 157 245.2 145C272.3 133 299.7 127 327 121C354.3 115 381.7 109 409 114C436.3 119 463.7 135 491 140C518.3 145 545.7 139 573 134C600.3 129 627.7 125 654.8 136C682 147 709 173 736.2 173C763.3 173 790.7 147 818 148C845.3 149 872.7 177 886.3 191L900 205L900 0L886.3 0C872.7 0 845.3 0 818 0C790.7 0 763.3 0 736.2 0C709 0 682 0 654.8 0C627.7 0 600.3 0 573 0C545.7 0 518.3 0 491 0C463.7 0 436.3 0 409 0C381.7 0 354.3 0 327 0C299.7 0 272.3 0 245.2 0C218 0 191 0 163.8 0C136.7 0 109.3 0 82 0C54.7 0 27.3 0 13.7 0L0 0Z" fill="#457709"></path><path d="M0 313L13.7 313C27.3 313 54.7 313 82 316C109.3 319 136.7 325 163.8 342C191 359 218 387 245.2 397C272.3 407 299.7 399 327 392C354.3 385 381.7 379 409 360C436.3 341 463.7 309 491 293C518.3 277 545.7 277 573 285C600.3 293 627.7 309 654.8 316C682 323 709 321 736.2 323C763.3 325 790.7 331 818 339C845.3 347 872.7 357 886.3 362L900 367L900 203L886.3 189C872.7 175 845.3 147 818 146C790.7 145 763.3 171 736.2 171C709 171 682 145 654.8 134C627.7 123 600.3 127 573 132C545.7 137 518.3 143 491 138C463.7 133 436.3 117 409 112C381.7 107 354.3 113 327 119C299.7 125 272.3 131 245.2 143C218 155 191 173 163.8 184C136.7 195 109.3 199 82 193C54.7 187 27.3 171 13.7 163L0 155Z" fill="#325805"></path><path d="M0 349L13.7 360C27.3 371 54.7 393 82 402C109.3 411 136.7 407 163.8 416C191 425 218 447 245.2 457C272.3 467 299.7 465 327 459C354.3 453 381.7 443 409 429C436.3 415 463.7 397 491 384C518.3 371 545.7 363 573 363C600.3 363 627.7 371 654.8 382C682 393 709 407 736.2 417C763.3 427 790.7 433 818 430C845.3 427 872.7 415 886.3 409L900 403L900 365L886.3 360C872.7 355 845.3 345 818 337C790.7 329 763.3 323 736.2 321C709 319 682 321 654.8 314C627.7 307 600.3 291 573 283C545.7 275 518.3 275 491 291C463.7 307 436.3 339 409 358C381.7 377 354.3 383 327 390C299.7 397 272.3 405 245.2 395C218 385 191 357 163.8 340C136.7 323 109.3 317 82 314C54.7 311 27.3 311 13.7 311L0 311Z" fill="#203b00"></path><path d="M0 427L13.7 442C27.3 457 54.7 487 82 503C109.3 519 136.7 521 163.8 521C191 521 218 519 245.2 516C272.3 513 299.7 509 327 511C354.3 513 381.7 521 409 512C436.3 503 463.7 477 491 467C518.3 457 545.7 463 573 458C600.3 453 627.7 437 654.8 439C682 441 709 461 736.2 472C763.3 483 790.7 485 818 489C845.3 493 872.7 499 886.3 502L900 505L900 401L886.3 407C872.7 413 845.3 425 818 428C790.7 431 763.3 425 736.2 415C709 405 682 391 654.8 380C627.7 369 600.3 361 573 361C545.7 361 518.3 369 491 382C463.7 395 436.3 413 409 427C381.7 441 354.3 451 327 457C299.7 463 272.3 465 245.2 455C218 445 191 423 163.8 414C136.7 405 109.3 409 82 400C54.7 391 27.3 369 13.7 358L0 347Z" fill="#1d3302"></path><path d="M0 601L13.7 601C27.3 601 54.7 601 82 601C109.3 601 136.7 601 163.8 601C191 601 218 601 245.2 601C272.3 601 299.7 601 327 601C354.3 601 381.7 601 409 601C436.3 601 463.7 601 491 601C518.3 601 545.7 601 573 601C600.3 601 627.7 601 654.8 601C682 601 709 601 736.2 601C763.3 601 790.7 601 818 601C845.3 601 872.7 601 886.3 601L900 601L900 503L886.3 500C872.7 497 845.3 491 818 487C790.7 483 763.3 481 736.2 470C709 459 682 439 654.8 437C627.7 435 600.3 451 573 456C545.7 461 518.3 455 491 465C463.7 475 436.3 501 409 510C381.7 519 354.3 511 327 509C299.7 507 272.3 511 245.2 514C218 517 191 519 163.8 519C136.7 519 109.3 517 82 501C54.7 485 27.3 455 13.7 440L0 425Z" fill="#1a2c03"></path></svg>